<svg aria-hidden="true" style="position: absolute; width: 0; height: 0; overflow: hidden;" version="1.1" xmlns="http://www.w3.org/2000/svg" xmlns:xlink="http://www.w3.org/1999/xlink">
<defs>
<symbol id="icon-envelope-header" viewBox="0 0 32 32">
<path fill="#757575" style="fill: var(--color1, #757575)" d="M29 4h-26c-1.654 0-3 1.346-3 3v18c0 1.654 1.346 3 3 3h26c1.654 0 3-1.346 3-3v-18c0-1.654-1.346-3-3-3zM29 6c0.136 0 0.266 0.028 0.384 0.078l-13.384 11.6-13.384-11.6c0.113-0.049 0.245-0.078 0.384-0.078h26zM29 26h-26c-0.552 0-1-0.448-1-1v0-16.81l13.344 11.566c0.175 0.152 0.404 0.245 0.656 0.245s0.481-0.093 0.657-0.246l-0.001 0.001 13.344-11.566v16.81c0 0.552-0.448 1-1 1v0z"></path>
</symbol>
<symbol id="icon-cellphone-header" viewBox="0 0 32 32">
<path fill="#757575" style="fill: var(--color1, #757575)" d="M23 0h-14c-1.654 0-3 1.346-3 3v26c0 1.654 1.346 3 3 3h14c1.654 0 3-1.346 3-3v-26c0-1.654-1.346-3-3-3zM9 2h14c0.552 0 1 0.448 1 1v0 21h-16v-21c0-0.552 0.448-1 1-1v0zM23 30h-14c-0.552 0-1-0.448-1-1v0-3h16v3c0 0.552-0.448 1-1 1v0z"></path>
<path fill="#757575" style="fill: var(--color1, #757575)" d="M10.708 27.478c0.18 0.163 0.293 0.399 0.293 0.66s-0.113 0.497-0.292 0.659l-0.001 0.001c-0.186 0.17-0.435 0.275-0.708 0.275s-0.522-0.104-0.709-0.275l0.001 0.001c-0.18-0.163-0.293-0.399-0.293-0.66s0.113-0.497 0.292-0.659l0.001-0.001c0.186-0.17 0.435-0.275 0.708-0.275s0.522 0.104 0.709 0.275l-0.001-0.001z"></path>
</symbol>
<symbol id="icon-antenna-corporate-value" viewBox="0 0 32 32">
<path fill="#f5f4fa" style="fill: var(--color2, #f5f4fa)" d="M0.474 8.889h31.052c0.262 0 0.474 0.212 0.474 0.474v13.274c0 0.262-0.212 0.474-0.474 0.474h-31.052c-0.262 0-0.474-0.212-0.474-0.474v-13.274c0-0.262 0.212-0.474 0.474-0.474z"></path>
<path fill="#212121" style="fill: var(--color3, #212121)" d="M19.83 17.581l-2.189-2.205 0.243-1.197c0.058 0.023 0.126 0.037 0.196 0.038h0.002c0.002 0 0.004 0 0.007 0 0.309 0 0.56-0.251 0.56-0.56s-0.251-0.56-0.56-0.56c-0.309 0-0.56 0.251-0.56 0.56 0 0.067 0.012 0.132 0.034 0.191l-0.001-0.004-1.286 0.157-2.098-2.109c-0.025-0.025-0.059-0.041-0.098-0.041h-0c-0.036 0-0.071 0.015-0.097 0.040l-0.392 0.39c-0.025 0.025-0.041 0.060-0.041 0.098s0.015 0.073 0.041 0.098v0l0.211 0.214c-0.817 1.503-0.552 3.365 0.653 4.579 0.011 0.011 0.024 0.019 0.038 0.025-0.008 0.043-0.013 0.092-0.014 0.142v1.604h-1.659c-0.382 0-0.691 0.31-0.691 0.691v0.277c0 0.076 0.062 0.138 0.138 0.138h6.361c0.076 0 0.138-0.062 0.138-0.138v-0.276c-0-0.382-0.31-0.691-0.691-0.691h-1.659v-0.711c0.26 0.055 0.525 0.082 0.79 0.083 0.669-0.001 1.297-0.172 1.845-0.472l-0.020 0.010 0.212 0.213c0.026 0.026 0.061 0.041 0.098 0.041 0.038-0 0.072-0.016 0.097-0.040v0l0.392-0.39c0.025-0.025 0.041-0.060 0.041-0.098s-0.015-0.073-0.041-0.098v0zM17.887 13.468c0.050-0.050 0.119-0.080 0.195-0.080 0.153 0 0.276 0.124 0.276 0.276s-0.124 0.276-0.276 0.276h-0.001c-0.152-0.001-0.275-0.124-0.275-0.277 0-0.077 0.031-0.146 0.081-0.196v0h-0zM17.562 14.376l-0.155 0.764-0.305-0.307 0.46-0.457zM17.405 14.143l-0.498 0.495-0.385-0.387 0.883-0.108zM18.075 19.319c0.229 0 0.415 0.186 0.415 0.415v0 0.138h-6.084v-0.138c0-0.229 0.186-0.415 0.415-0.415v0h5.254zM16.139 18.765v0.277h-1.383v-0.277h1.383zM14.757 18.489v-1.051c0-0.335 0.31-0.608 0.691-0.608s0.691 0.273 0.691 0.608v1.051h-1.383zM16.416 18.049v-0.611c0-0.488-0.434-0.885-0.968-0.885-0.004-0-0.010-0-0.015-0-0.351 0-0.659 0.183-0.833 0.459l-0.002 0.004c-0.612-0.643-0.988-1.516-0.988-2.476 0-0.6 0.147-1.166 0.407-1.663l-0.009 0.020 4.823 4.85c-0.473 0.245-1.032 0.389-1.625 0.389-0.28 0-0.552-0.032-0.813-0.093l0.024 0.005zM19.343 17.872l-5.459-5.491 0.196-0.195 2.057 2.069c0.001 0 0.002 0.002 0.003 0.002l3.4 3.42-0.196 0.195z"></path>
<path fill="#2196f3" style="fill: var(--color4, #2196f3)" d="M15.449 17.106h-0.001c-0 0-0 0-0.001 0-0.229 0-0.415 0.186-0.415 0.415s0.185 0.414 0.414 0.415h0.001c0 0 0 0 0.001 0 0.229 0 0.415-0.186 0.415-0.415s-0.185-0.414-0.414-0.415h-0zM15.546 17.619c-0.025 0.025-0.059 0.040-0.097 0.040-0.076 0-0.138-0.062-0.138-0.138 0-0.038 0.016-0.073 0.041-0.098v0c0.026-0.026 0.060-0.040 0.097-0.040 0.076 0 0.138 0.062 0.138 0.138 0 0.038-0.016 0.073-0.041 0.098v0h0.001z"></path>
</symbol>
<symbol id="icon-clock-corporate-value" viewBox="0 0 32 32">
<path fill="#f5f4fa" style="fill: var(--color2, #f5f4fa)" d="M0.474 8.889h31.052c0.262 0 0.474 0.212 0.474 0.474v13.274c0 0.262-0.212 0.474-0.474 0.474h-31.052c-0.262 0-0.474-0.212-0.474-0.474v-13.274c0-0.262 0.212-0.474 0.474-0.474z"></path>
<path fill="#212121" style="fill: var(--color3, #212121)" d="M19.966 15.819c-0-2.191-1.777-3.967-3.969-3.967s-3.967 1.777-3.967 3.969c0 1.76 1.146 3.252 2.733 3.771l0.028 0.008c0.016 0.005 0.032 0.007 0.048 0.007 0.031 0 0.062-0.008 0.089-0.024 0.035-0.021 0.061-0.054 0.073-0.092l1.002-3.176c0.273-0.001 0.493-0.223 0.493-0.496 0-0.001 0-0.002 0-0.003v0c-0.001-0.273-0.223-0.494-0.496-0.494-0.001 0-0.002 0-0.003 0h0c-0.077 0-0.151 0.019-0.215 0.051l0.003-0.001-1.324-1.324c-0.030-0.029-0.070-0.046-0.115-0.046-0.091 0-0.165 0.074-0.165 0.165 0 0.045 0.018 0.085 0.046 0.115l-0-0 1.323 1.325c-0.031 0.062-0.050 0.136-0.050 0.214 0 0.156 0.073 0.295 0.188 0.384l0.001 0.001-0.955 3.026c-1.887-0.695-2.853-2.788-2.158-4.675s2.788-2.853 4.675-2.158c1.887 0.695 2.853 2.788 2.158 4.675-0.349 0.928-1.038 1.661-1.912 2.058l-0.023 0.009-0.103-0.486c-0.016-0.075-0.082-0.131-0.162-0.131-0.042 0-0.081 0.016-0.11 0.042l0-0-0.995 0.888c-0.034 0.030-0.055 0.075-0.055 0.124 0 0.073 0.048 0.136 0.114 0.157l0.001 0 1.27 0.405c0.015 0.005 0.033 0.008 0.051 0.008 0.091 0 0.165-0.074 0.165-0.165 0-0.012-0.001-0.024-0.004-0.036l0 0.001-0.101-0.477c1.433-0.616 2.419-2.015 2.419-3.644 0-0.003 0-0.006 0-0.009v0zM15.998 15.654c0.091 0 0.165 0.074 0.165 0.165s-0.074 0.165-0.165 0.165v0c-0.091 0-0.165-0.074-0.165-0.165s0.074-0.165 0.165-0.165v0zM16.542 19.507l0.566-0.505 0.156 0.736-0.723-0.231z"></path>
<path fill="#2196f3" style="fill: var(--color4, #2196f3)" d="M15.833 12.678v0.331c0 0.091 0.074 0.165 0.165 0.165s0.165-0.074 0.165-0.165v0-0.331c0-0.091-0.074-0.165-0.165-0.165s-0.165 0.074-0.165 0.165v0zM12.857 15.654c-0.091 0-0.165 0.074-0.165 0.165s0.074 0.165 0.165 0.165h0.331c0.091 0 0.165-0.074 0.165-0.165s-0.074-0.165-0.165-0.165h-0.331zM19.139 15.984c0.091 0 0.165-0.074 0.165-0.165s-0.074-0.165-0.165-0.165v0h-0.331c-0.091 0-0.165 0.074-0.165 0.165s0.074 0.165 0.165 0.165h0.331z"></path>
</symbol>
<symbol id="icon-laptop-corporate-value" viewBox="0 0 32 32">
<path fill="#f5f4fa" style="fill: var(--color2, #f5f4fa)" d="M0.474 8.889h31.052c0.262 0 0.474 0.212 0.474 0.474v13.274c0 0.262-0.212 0.474-0.474 0.474h-31.052c-0.262 0-0.474-0.212-0.474-0.474v-13.274c0-0.262 0.212-0.474 0.474-0.474z"></path>
<path fill="#2196f3" style="fill: var(--color4, #2196f3)" d="M15.721 15.732h0.276v1.244h-0.276v-1.244zM16.827 16.284h0.276v0.691h-0.276v-0.691zM14.616 16.699h0.276v0.276h-0.276v-0.276zM13.787 16.561h0.276v0.415h-0.276v-0.415z"></path>
<path fill="#212121" style="fill: var(--color3, #212121)" d="M12.266 19.186h6.634c0.229 0 0.415-0.186 0.415-0.415v-0.553c0-0.229-0.186-0.415-0.415-0.415v0h-0.138v-3.447l0.785-0.743c0.054 0.027 0.117 0.043 0.184 0.043 0.23 0 0.417-0.187 0.417-0.417s-0.187-0.417-0.417-0.417c-0.23 0-0.417 0.187-0.417 0.417 0 0.064 0.014 0.124 0.040 0.179l-0.001-0.003-0.591 0.561v-0.319c-0-0.229-0.186-0.415-0.415-0.415h-5.528c-0.229 0-0.415 0.186-0.415 0.415v0 4.146h-0.138c-0.229 0-0.415 0.186-0.415 0.415v0.553c0 0.229 0.186 0.415 0.415 0.415v0zM19.729 13.106c0.076 0 0.138 0.062 0.138 0.138s-0.062 0.138-0.138 0.138v0c-0.076 0-0.138-0.062-0.138-0.138s0.062-0.138 0.138-0.138v0zM12.681 13.659c0-0.076 0.062-0.138 0.138-0.138h5.528c0.076 0 0.138 0.062 0.138 0.138v0.58l-0.276 0.263v-0.567c0-0.076-0.062-0.138-0.138-0.138h-4.975c-0.076 0-0.138 0.062-0.138 0.138v3.455c0 0.076 0.062 0.138 0.138 0.138h4.975c0.076 0 0.138-0.062 0.138-0.138v-2.508l0.276-0.262v3.185h-5.804v-4.146zM13.925 15.455c-0 0-0.001 0-0.001 0-0.229 0-0.415 0.186-0.415 0.415s0.186 0.415 0.415 0.415c0.112 0 0.214-0.044 0.288-0.117l-0 0 0.48 0.241c0.018 0.009 0.039 0.015 0.062 0.015 0.041 0 0.078-0.018 0.103-0.046l0-0 1.021-1.149 1.004 0.752c0.054 0.040 0.129 0.036 0.178-0.010l0.872-0.826v2.108h-4.699v-3.179h4.699v0.69l-0.978 0.926-1.012-0.759c-0.023-0.017-0.052-0.028-0.083-0.028-0.041 0-0.078 0.018-0.103 0.046l-0 0-1.035 1.165-0.387-0.194c0.003-0.015 0.004-0.032 0.005-0.049l0-0.001c0-0.229-0.186-0.415-0.415-0.415v0zM14.063 15.87c0 0.076-0.062 0.138-0.138 0.138s-0.138-0.062-0.138-0.138v0c0-0.076 0.062-0.138 0.138-0.138s0.138 0.062 0.138 0.138v0zM14.892 18.081h1.382v0.138c0 0.076-0.062 0.138-0.138 0.138h-1.106c-0.076 0-0.138-0.062-0.138-0.138v0-0.138zM12.128 18.219c0-0.076 0.062-0.138 0.138-0.138h2.349v0.138c0 0.229 0.186 0.415 0.415 0.415h1.106c0.229 0 0.415-0.186 0.415-0.415v0-0.138h2.349c0.076 0 0.138 0.062 0.138 0.138v0.553c0 0.076-0.062 0.138-0.138 0.138h-6.634c-0.076 0-0.138-0.062-0.138-0.138v0-0.553z"></path>
</symbol>
<symbol id="icon-astronaut-corporate-value" viewBox="0 0 32 32">
<path fill="#f5f4fa" style="fill: var(--color2, #f5f4fa)" d="M0.474 8.889h31.052c0.262 0 0.474 0.212 0.474 0.474v13.274c0 0.262-0.212 0.474-0.474 0.474h-31.052c-0.262 0-0.474-0.212-0.474-0.474v-13.274c0-0.262 0.212-0.474 0.474-0.474z"></path>
<path fill="#2196f3" style="fill: var(--color4, #2196f3)" d="M20.141 13.025c-0.016-0.050-0.059-0.086-0.111-0.094l-0.001-0-0.495-0.072-0.222-0.449c-0.046-0.095-0.201-0.095-0.248 0l-0.222 0.449-0.495 0.072c-0.067 0.010-0.119 0.067-0.119 0.137 0 0.039 0.016 0.074 0.042 0.099l0 0 0.359 0.349-0.085 0.493c-0.009 0.052 0.012 0.104 0.055 0.135s0.099 0.035 0.146 0.011l0.443-0.233 0.443 0.233c0.019 0.010 0.041 0.016 0.064 0.016 0.031 0 0.059-0.010 0.082-0.027l-0 0c0.043-0.031 0.064-0.083 0.055-0.135l-0.085-0.493 0.359-0.35c0.026-0.025 0.042-0.060 0.042-0.099 0-0.015-0.002-0.030-0.007-0.044l0 0.001zM19.503 13.369c-0.026 0.025-0.042 0.060-0.042 0.099 0 0.008 0.001 0.016 0.002 0.024l-0-0.001 0.049 0.289-0.259-0.136c-0.019-0.010-0.041-0.016-0.064-0.016s-0.046 0.006-0.065 0.016l0.001-0-0.259 0.136 0.049-0.289c0.001-0.007 0.002-0.015 0.002-0.024 0-0.039-0.016-0.074-0.042-0.099l-0-0-0.21-0.205 0.29-0.042c0.045-0.007 0.084-0.035 0.104-0.076l0.13-0.263 0.13 0.263c0.020 0.041 0.059 0.069 0.104 0.076l0.29 0.042-0.21 0.205zM18.627 17.172h-0.276v0.277h0.276v-0.277zM18.627 17.726h-0.276v0.276h0.276v-0.276zM18.904 17.449h-0.276v0.276h0.276v-0.276zM18.351 17.449h-0.277v0.276h0.277v-0.276zM17.659 18.693h-0.276v0.276h0.276v-0.276zM17.659 19.247h-0.276v0.276h0.276v-0.276zM17.936 18.97h-0.277v0.276h0.277v-0.277zM17.383 18.97h-0.277v0.276h0.277v-0.277zM16 18.14h-0.277v0.276h0.277v-0.277zM16 18.693h-0.277v0.276h0.277v-0.276zM16.276 18.417h-0.277v0.277h0.277v-0.277zM15.723 18.417h-0.277v0.277h0.277v-0.277zM13.373 13.439h-0.277v0.277h0.277v-0.277zM13.373 13.992h-0.277v0.277h0.277v-0.276zM13.649 13.716h-0.277v0.277h0.277v-0.277zM13.096 13.716h-0.277v0.277h0.277v-0.277z"></path>
<path fill="#212121" style="fill: var(--color3, #212121)" d="M18.259 15.523c-0.073-0.098-0.181-0.165-0.306-0.182l-0.002-0c-0.020-0.003-0.043-0.005-0.066-0.005-0.106 0-0.204 0.036-0.283 0.097l0.001-0.001-0.325 0.249-0.492 0.367-0.352-0.14c0.628-0.282 1.067-0.909 1.067-1.639 0-0.991-0.81-1.798-1.805-1.798s-1.805 0.806-1.805 1.798c0 0.359 0.107 0.693 0.29 0.974l-0.718-0.006c-0.002 0-0.004 0.001-0.006 0.001-0.015 0.001-0.028 0.004-0.041 0.008l0.001-0c-0.003 0.001-0.007 0.002-0.010 0.003-0.002 0.001-0.003 0.001-0.005 0.002l-0.838 0.414c-0 0-0 0-0 0l-0.491 0.236c-0.006 0.003-0.012 0.006-0.017 0.009l0-0c-0.125 0.084-0.206 0.225-0.206 0.384 0 0.077 0.019 0.149 0.052 0.213l-0.001-0.003c0.057 0.11 0.154 0.192 0.271 0.23l0.003 0.001c0.042 0.014 0.090 0.022 0.139 0.022 0.080 0 0.155-0.020 0.221-0.056l-0.002 0.001 0.36-0.191 0.587-0.303 0.352-0.002-1.758 1.75c-0.078 0.078-0.127 0.185-0.127 0.304 0 0 0 0.001 0 0.001v-0c0 0 0 0.001 0 0.001 0 0.119 0.049 0.227 0.127 0.305l0 0c0.078 0.078 0.186 0.126 0.305 0.126 0 0 0.001 0 0.001 0h-0c0.111 0 0.222-0.042 0.306-0.126l0.341-0.339 0.451-0.337 0.233 0.233-0.804 0.801c-0.079 0.078-0.127 0.185-0.127 0.304 0 0 0 0.001 0 0.001v-0c0.001 0.238 0.194 0.431 0.432 0.431 0 0 0 0 0.001 0h-0c0.111 0 0.222-0.042 0.306-0.126l1.164-1.159c0.002-0.002 0.004-0.002 0.006-0.004l1.339-1.467 0.9 0.128c0.007 0.001 0.013 0.001 0.020 0.001 0.017 0 0.033-0.004 0.048-0.010 0.005-0.002 0.009-0.004 0.013-0.006s0.010-0.004 0.015-0.007l0.833-0.553c0.003-0.002 0.005-0.005 0.008-0.008s0.007-0.004 0.011-0.007l0.33-0.309c0.090-0.084 0.146-0.204 0.146-0.337 0-0.104-0.034-0.2-0.092-0.277l0.001 0.001zM12.404 16.459c-0.025 0.014-0.056 0.022-0.088 0.022-0.020 0-0.040-0.003-0.058-0.009l0.001 0c-0.077-0.024-0.131-0.094-0.131-0.177 0-0.061 0.030-0.116 0.075-0.149l0.001-0 0.341-0.164 0.082 0.24 0.034 0.101-0.257 0.137zM13.311 15.985l-0.401 0.207-0.066-0.194-0.048-0.139 0.525-0.259-0.010 0.385zM17.225 14.269c0 0.238-0.057 0.463-0.155 0.664l-1.084-0.492c-0.011-0.149-0.089-0.278-0.203-0.359l-0.002-0.001 0.38-1.26c0.617 0.196 1.064 0.771 1.064 1.449zM14.169 14.269c0-0.839 0.685-1.521 1.528-1.521 0.066 0 0.13 0.006 0.193 0.014l-0.371 1.232c-0.005 0-0.010-0.001-0.015-0.001-0.268 0-0.486 0.217-0.486 0.484s0.218 0.484 0.486 0.484c0.18 0 0.336-0.099 0.419-0.245l1.001 0.455c-0.279 0.375-0.724 0.62-1.228 0.62-0.843 0-1.528-0.682-1.528-1.521zM15.713 14.476c0 0.114-0.094 0.207-0.209 0.207-0 0-0 0-0 0-0.115 0-0.208-0.093-0.208-0.207v-0c0-0.114 0.094-0.207 0.209-0.207s0.209 0.093 0.209 0.207zM12.491 18.371c-0.028 0.028-0.068 0.046-0.111 0.046s-0.082-0.017-0.111-0.045l0 0c-0.028-0.028-0.046-0.067-0.046-0.109s0.018-0.082 0.046-0.109l0-0 0.249-0.249 0.221 0.22-0.249 0.247zM13.324 19.339c-0.028 0.028-0.068 0.046-0.111 0.046s-0.082-0.017-0.111-0.045l0 0c-0.028-0.028-0.046-0.067-0.046-0.109s0.018-0.081 0.046-0.109h0l0.25-0.249 0.221 0.22-0.249 0.248zM14.227 18.44l-0 0-0.458 0.456-0.221-0.22 0.458-0.455c0.010-0.010 0.017-0.023 0.023-0.035 0.002-0.004 0.005-0.007 0.007-0.010 0.004-0.011 0.005-0.022 0.007-0.033 0.001-0.006 0.004-0.012 0.004-0.019 0-0.009-0.003-0.018-0.005-0.027s-0.002-0.017-0.005-0.025c-0.006-0.014-0.014-0.025-0.024-0.036l0 0c-0.003-0.003-0.004-0.007-0.007-0.010h-0l-0-0-0.417-0.415c-0.004-0.005-0.010-0.006-0.015-0.010-0.007-0.005-0.014-0.010-0.022-0.015l-0.001-0c-0.007-0.003-0.015-0.006-0.023-0.008l-0.001-0c-0.008-0.002-0.017-0.004-0.026-0.005l-0.001-0c-0.002-0-0.004-0-0.006-0-0.007 0-0.013 0-0.020 0.001l0.001-0c-0.009 0.001-0.018 0.002-0.027 0.005s-0.016 0.007-0.024 0.012c-0.005 0.003-0.011 0.004-0.016 0.007l-0.46 0.343-0.233-0.233 0.622-0.619 1.13 1.112-0.24 0.238zM15.995 16.621c-0.004-0-0.008 0.001-0.012 0.001-0.002-0-0.005-0-0.007-0-0.016 0-0.032 0.003-0.047 0.008l0.001-0c-0.010 0.003-0.018 0.008-0.025 0.012l0.001-0c-0.008 0.005-0.015 0.010-0.022 0.016-0.003 0.003-0.007 0.004-0.010 0.008l-1.218 1.334-1.122-1.104 0.734-0.731c0.025-0.025 0.041-0.060 0.041-0.098 0-0.076-0.062-0.138-0.138-0.138-0 0-0 0-0.001 0h0l-0.575 0.003 0.007-0.417 0.805 0.007c0.328 0.336 0.785 0.545 1.291 0.545 0 0 0.001 0 0.001 0h-0c0.113 0 0.224-0.012 0.332-0.032 0.010 0.008 0.021 0.017 0.034 0.022l0.625 0.249 0.039 0.197 0.046 0.23-0.779-0.111zM17.042 16.667l-0.081-0.404 0.375-0.28 0.245 0.326-0.539 0.358zM18.015 15.933l-0.217 0.204-0.241-0.32 0.215-0.165c0.040-0.031 0.091-0.044 0.141-0.037s0.094 0.033 0.124 0.074c0.023 0.030 0.037 0.069 0.037 0.11 0 0.053-0.023 0.101-0.059 0.135l-0 0z"></path>
<path fill="#212121" style="fill: var(--color3, #212121)" d="M15.378 16.66l-0.556-0.553c-0.025-0.025-0.059-0.040-0.098-0.040s-0.073 0.015-0.098 0.040v0l-0.556 0.553c-0.026 0.026-0.041 0.061-0.041 0.098s0.014 0.072 0.041 0.098l0.556 0.553c0.025 0.025 0.059 0.040 0.098 0.040s0.073-0.015 0.098-0.040v0l0.556-0.553c0.025-0.025 0.041-0.060 0.041-0.098s-0.016-0.073-0.041-0.098v0zM14.725 17.116l-0.359-0.358 0.359-0.358 0.36 0.358-0.36 0.358zM16.302 13.166l-0.067 0.269c0.018 0.005 0.451 0.117 0.451 0.557h0.277c0-0.523-0.432-0.769-0.66-0.826zM16.962 14.269h-0.277v0.277h0.277v-0.277z"></path>
</symbol>
<symbol id="icon-twitter-team" viewBox="0 0 32 32">
<path fill="#afb1b8" style="fill: var(--color5, #afb1b8)" d="M32 6.078c-1.1 0.493-2.376 0.857-3.713 1.028l-0.068 0.007c1.36-0.817 2.382-2.078 2.873-3.579l0.013-0.046c-1.197 0.722-2.591 1.273-4.076 1.573l-0.084 0.014c-1.2-1.279-2.9-2.076-4.787-2.076-3.622 0-6.558 2.936-6.558 6.558 0 0.001 0 0.003 0 0.004v-0c0 0.52 0.043 1.021 0.152 1.496-5.454-0.266-10.28-2.88-13.522-6.861-0.564 0.949-0.899 2.092-0.902 3.313v0.001c0 2.272 1.171 4.286 2.914 5.451-1.091-0.030-2.107-0.325-2.994-0.823l0.033 0.017v0.072c0.003 3.165 2.236 5.807 5.213 6.44l0.043 0.008c-0.499 0.136-1.071 0.215-1.662 0.215-0.020 0-0.041-0-0.061-0l0.003 0c-0.419 0-0.843-0.024-1.242-0.112 0.85 2.598 3.261 4.509 6.13 4.57-2.215 1.746-5.045 2.8-8.122 2.8-0.004 0-0.008 0-0.013 0h0.001c-0.018 0-0.040 0-0.062 0-0.531 0-1.055-0.034-1.569-0.099l0.061 0.006c2.826 1.846 6.287 2.944 10.004 2.944 0.021 0 0.042-0 0.063-0h-0.003c12.072 0 18.672-10 18.672-18.669 0-0.288-0.010-0.57-0.024-0.848 1.299-0.936 2.39-2.064 3.258-3.355l0.030-0.047z"></path>
</symbol>
<symbol id="icon-facebook-team" viewBox="0 0 32 32">
<path fill="#afb1b8" style="fill: var(--color5, #afb1b8)" d="M20.528 5.312h2.923v-5.088c-1.232-0.143-2.66-0.224-4.107-0.224-0.052 0-0.104 0-0.157 0l0.008-0c-4.213 0-7.099 2.65-7.099 7.52v4.48h-4.646v5.688h4.646v14.312h5.699v-14.31h4.461l0.709-5.69h-5.17v-3.92c0-1.643 0.443-2.768 2.734-2.768z"></path>
</symbol>
<symbol id="icon-instagram-team" viewBox="0 0 32 32">
<path fill="#afb1b8" style="fill: var(--color5, #afb1b8)" d="M31.968 9.408c-0.074-1.701-0.349-2.869-0.742-3.882-0.424-1.111-1.054-2.059-1.85-2.837l-0.001-0.001c-0.78-0.792-1.724-1.419-2.778-1.827l-0.054-0.018c-1.019-0.394-2.181-0.667-3.882-0.742-1.712-0.082-2.256-0.101-6.602-0.101-4.344 0-4.888 0.019-6.595 0.094-1.699 0.074-2.869 0.349-3.88 0.742-1.112 0.424-2.060 1.054-2.839 1.85l-0.001 0.001c-0.791 0.78-1.418 1.724-1.825 2.778l-0.018 0.054c-0.395 1.019-0.669 2.181-0.744 3.882-0.082 1.712-0.101 2.256-0.101 6.602 0 4.344 0.019 4.888 0.094 6.595 0.075 1.701 0.35 2.869 0.744 3.882 0.426 1.11 1.055 2.057 1.849 2.837l0.001 0.001c0.8 0.813 1.77 1.443 2.832 1.843 1.019 0.395 2.182 0.67 3.882 0.744 1.707 0.075 2.251 0.094 6.595 0.094 4.346 0 4.89-0.019 6.595-0.094 1.701-0.074 2.869-0.349 3.882-0.742 2.157-0.85 3.833-2.526 4.664-4.628l0.019-0.055c0.394-1.019 0.669-2.182 0.744-3.882 0.075-1.707 0.093-2.251 0.093-6.595s-0.006-4.888-0.080-6.595zM29.088 22.474c-0.070 1.563-0.333 2.406-0.55 2.97-0.552 1.399-1.64 2.486-3.004 3.024l-0.036 0.012c-0.56 0.219-1.411 0.482-2.968 0.55-1.688 0.075-2.194 0.094-6.464 0.094-4.269 0-4.782-0.019-6.464-0.094-1.563-0.069-2.406-0.331-2.97-0.55-0.721-0.269-1.334-0.676-1.836-1.192l-0.001-0.001c-0.517-0.503-0.924-1.117-1.184-1.803l-0.011-0.034c-0.218-0.563-0.48-1.413-0.549-2.97-0.075-1.688-0.094-2.195-0.094-6.464 0-4.27 0.019-4.784 0.094-6.464 0.069-1.563 0.331-2.406 0.549-2.97 0.269-0.722 0.678-1.337 1.198-1.837l0.002-0.002c0.504-0.517 1.119-0.923 1.806-1.182l0.034-0.011c0.56-0.219 1.411-0.48 2.968-0.55 1.688-0.074 2.195-0.093 6.464-0.093 4.275 0 4.782 0.019 6.464 0.093 1.563 0.069 2.406 0.331 2.97 0.55 0.693 0.256 1.325 0.662 1.837 1.194 0.531 0.52 0.938 1.144 1.195 1.84 0.218 0.56 0.48 1.411 0.549 2.968 0.075 1.688 0.094 2.194 0.094 6.464 0 4.269-0.019 4.768-0.094 6.458z"></path>
<path fill="#afb1b8" style="fill: var(--color5, #afb1b8)" d="M16.059 7.782c-4.539 0.002-8.218 3.682-8.219 8.221v0c0.091 4.471 3.737 8.060 8.221 8.060s8.13-3.589 8.221-8.052l0-0.009c-0.001-4.54-3.681-8.22-8.221-8.221h-0zM16.059 21.334c-2.945-0-5.332-2.388-5.332-5.333s2.388-5.333 5.333-5.333c0 0 0.001 0 0.001 0h-0c2.946 0 5.334 2.388 5.334 5.334s-2.388 5.334-5.334 5.334v0zM26.525 7.458c0 1.060-0.86 1.92-1.92 1.92s-1.92-0.86-1.92-1.92v0c0-1.060 0.86-1.92 1.92-1.92s1.92 0.86 1.92 1.92v0z"></path>
</symbol>
<symbol id="icon-linkedin-team" viewBox="0 0 32 32">
<path fill="#afb1b8" style="fill: var(--color5, #afb1b8)" d="M31.992 32h0.008v-11.738c0-5.741-1.237-10.163-7.947-10.163-3.227 0-5.392 1.77-6.277 3.45h-0.093v-2.914h-6.365v21.363h6.627v-10.578c0-2.786 0.528-5.48 3.978-5.48 3.398 0 3.448 3.179 3.448 5.658v10.402h6.621zM0.528 10.635h6.635v21.365h-6.635v-21.365zM3.843 0c-2.123 0-3.843 1.721-3.843 3.843v0c0 2.12 1.722 3.878 3.843 3.878 2.12 0 3.842-1.757 3.842-3.878s-1.72-3.841-3.841-3.843h-0z"></path>
</symbol>
<symbol id="icon-client-one" viewBox="0 0 32 32">
<path fill="#afb1b8" style="fill: var(--color5, #afb1b8)" d="M13.176 12.346l1.319 1.249-2.449-0.002v6.059h6.4v-2.317l1.318 1.247v-6.237h-6.588zM18.389 17.189l-3.74-3.541h3.74v3.541zM17.228 18.766h-4.168v-4.075h0.295v3.799h3.873v0.276zM14.044 20.459l-0.154 0.317-0.154-0.317h-0.129l0.225 0.423v0.246h0.117v-0.246l0.224-0.423h-0.129zM14.238 21.128l0.054-0.156h0.259l0.055 0.156h0.121l-0.253-0.669h-0.104l-0.253 0.669h0.121zM14.421 20.601l0.097 0.277h-0.194l0.097-0.278zM15.035 20.862c-0.016 0.024-0.025 0.053-0.025 0.084 0 0 0 0.001 0 0.001v-0c0 0.056 0.020 0.102 0.059 0.137s0.093 0.053 0.159 0.053c0.066 0 0.123-0.018 0.171-0.054l0.038 0.045h0.13l-0.098-0.116c0.039-0.053 0.058-0.12 0.058-0.203h-0.097c0 0.045-0.009 0.086-0.028 0.123l-0.129-0.152 0.046-0.033c0.028-0.019 0.051-0.042 0.069-0.069l0.001-0.001c0.013-0.022 0.021-0.048 0.021-0.076 0-0 0-0.001 0-0.001v0c0-0.001 0-0.002 0-0.003 0-0.041-0.018-0.078-0.047-0.103l-0-0c-0.030-0.027-0.069-0.043-0.113-0.043-0.002 0-0.005 0-0.007 0h0c-0.054 0-0.097 0.015-0.129 0.046s-0.048 0.072-0.048 0.124c0 0.021 0.005 0.043 0.015 0.067s0.029 0.051 0.055 0.084c-0.050 0.036-0.083 0.066-0.1 0.092zM15.336 21.010c-0.029 0.023-0.065 0.037-0.106 0.038h-0c-0.002 0-0.004 0-0.005 0-0.029 0-0.055-0.011-0.075-0.029l0 0c-0.019-0.018-0.030-0.044-0.030-0.072 0-0.001 0-0.003 0-0.004v0c0-0.036 0.018-0.068 0.055-0.096l0.014-0.010 0.146 0.172zM15.217 20.714c-0.032-0.039-0.047-0.071-0.047-0.097 0-0.022 0.007-0.041 0.019-0.056 0.012-0.014 0.030-0.022 0.049-0.022 0.001 0 0.002 0 0.003 0h-0c0.001-0 0.002-0 0.002-0 0.018 0 0.035 0.007 0.048 0.019l-0-0c0.013 0.012 0.020 0.027 0.020 0.045 0 0.001 0 0.001 0 0.002 0 0.025-0.011 0.047-0.028 0.062l-0 0-0.014 0.012-0.051 0.035zM16.306 21.077c0.046-0.040 0.072-0.096 0.079-0.167h-0.116c-0.006 0.048-0.021 0.082-0.044 0.102s-0.057 0.031-0.103 0.031c-0.050 0-0.088-0.019-0.114-0.057s-0.039-0.093-0.039-0.166v-0.059c0.001-0.072 0.014-0.125 0.041-0.162s0.066-0.056 0.117-0.056c0.043 0 0.076 0.011 0.099 0.032s0.037 0.056 0.042 0.104h0.116c-0.008-0.073-0.034-0.13-0.079-0.17s-0.104-0.060-0.178-0.060c-0.055 0-0.103 0.013-0.145 0.039s-0.075 0.065-0.095 0.109l-0.001 0.002c-0.021 0.047-0.034 0.102-0.034 0.159 0 0.003 0 0.006 0 0.008v-0 0.063c0.001 0.062 0.012 0.116 0.034 0.162s0.053 0.082 0.094 0.108c0.041 0.025 0.088 0.038 0.141 0.038 0.076 0 0.137-0.020 0.183-0.060zM16.989 20.983c0.023-0.050 0.034-0.107 0.034-0.173v-0.037c0-0.002 0-0.005 0-0.007 0-0.059-0.013-0.116-0.036-0.167l0.001 0.003c-0.021-0.047-0.055-0.086-0.097-0.112l-0.001-0.001c-0.042-0.026-0.090-0.040-0.145-0.040s-0.103 0.013-0.145 0.040c-0.042 0.026-0.075 0.064-0.098 0.114-0.022 0.048-0.035 0.105-0.035 0.165 0 0.003 0 0.006 0 0.009v-0 0.038c0 0.064 0.012 0.12 0.035 0.169s0.056 0.087 0.098 0.114c0.043 0.026 0.091 0.040 0.145 0.040s0.103-0.013 0.145-0.040c0.042-0.027 0.075-0.065 0.097-0.114zM16.865 20.605c0.028 0.040 0.042 0.097 0.042 0.171v0.035c0 0.075-0.014 0.133-0.042 0.172s-0.067 0.059-0.119 0.059c-0.001 0-0.003 0-0.005 0-0.047 0-0.089-0.024-0.114-0.060l-0-0c-0.029-0.040-0.043-0.097-0.043-0.171v-0.039c0.001-0.072 0.015-0.128 0.043-0.167 0.025-0.036 0.066-0.059 0.113-0.059 0.002 0 0.004 0 0.005 0h-0c0.051 0 0.091 0.020 0.119 0.059z"></path>
</symbol>
<symbol id="icon-client-two" viewBox="0 0 32 32">
<path fill="#afb1b8" style="fill: var(--color5, #afb1b8)" d="M15.457 12.145h-0.026c-0.033-0.002-0.074-0.003-0.116-0.004l-0.003-0h-0.086c-0.075 0-0.151 0.002-0.227 0.006-0.003-0-0.006-0-0.009-0s-0.006 0-0.009 0l0-0c-0.727 0.042-1.401 0.224-2.011 0.519l0.032-0.014-0.082 0.039v4.168l0.191-0.065c0.167-0.057 0.345-0.109 0.53-0.157 0.455-0.122 0.979-0.195 1.519-0.202l0.004-0v0.548c-0.068 0-0.134 0.002-0.2 0.006h-0.016c-0.428 0.024-0.829 0.088-1.215 0.189l0.042-0.009c-0.53 0.135-0.995 0.321-1.427 0.56l0.031-0.016v-5.345c0.422-0.251 0.91-0.455 1.427-0.588l0.039-0.008c0.414-0.111 0.889-0.176 1.38-0.178h0.082c0.096 0.002 0.19 0.007 0.278 0.013 0.232 0.016 0.462 0.053 0.688 0.11v0.539c-0.197-0.048-0.429-0.084-0.667-0.101l-0.013-0.001c-0.046-0.004-0.093-0.008-0.136-0.008zM16.405 12.696c0.12 0.009 0.243 0.014 0.369 0.014 0.517-0.002 1.017-0.070 1.493-0.196l-0.041 0.009c0.53-0.135 0.995-0.322 1.427-0.56l-0.031 0.016v5.25c-0.422 0.251-0.91 0.455-1.427 0.587l-0.039 0.008c-0.414 0.111-0.889 0.176-1.38 0.178h-0.001c-0.010 0-0.022 0-0.033 0-0.36 0-0.71-0.045-1.043-0.13l0.029 0.006v-5.284c0.081 0.018 0.164 0.036 0.249 0.050 0.139 0.024 0.286 0.041 0.429 0.051zM19.077 12.737l-0.191 0.064c-0.175 0.059-0.352 0.112-0.529 0.159-0.474 0.127-1.019 0.201-1.581 0.203h-0.001c-0.124 0-0.238-0.003-0.349-0.011l-0.152-0.010v4.287l0.13 0.011c0.121 0.011 0.246 0.016 0.371 0.016 0.444-0.002 0.873-0.061 1.281-0.169l-0.035 0.008c0.373-0.095 0.698-0.215 1.005-0.364l-0.031 0.014 0.081-0.039v-4.169z"></path>
<path fill="#afb1b8" style="fill: var(--color5, #afb1b8)" d="M12.751 19.539c-0.051-0.053-0.123-0.086-0.202-0.086-0.003 0-0.007 0-0.010 0h0.001c-0.001-0-0.003-0-0.004-0-0.043 0-0.083 0.008-0.12 0.024l0.002-0.001c-0.072 0.029-0.128 0.086-0.156 0.157l-0.001 0.002c-0.015 0.038-0.022 0.078-0.022 0.118v0.714c-0 0.003-0 0.007-0 0.011 0 0.049 0.010 0.095 0.029 0.137l-0.001-0.002c0.017 0.037 0.041 0.069 0.072 0.096 0.028 0.024 0.062 0.041 0.098 0.051 0.035 0.010 0.071 0.015 0.107 0.015 0.040 0 0.079-0.008 0.115-0.025 0.107-0.048 0.181-0.153 0.181-0.276v-0.080h-0.187v0.064c0 0.001 0 0.003 0 0.004 0 0.021-0.004 0.042-0.011 0.060l0-0.001c-0.006 0.016-0.016 0.029-0.027 0.040l-0 0c-0.021 0.017-0.049 0.027-0.078 0.027h-0c-0.003 0-0.007 0.001-0.011 0.001-0.031 0-0.059-0.015-0.076-0.039l-0-0c-0.016-0.025-0.025-0.056-0.025-0.088 0-0.003 0-0.005 0-0.008v0-0.666c-0.001-0.037 0.007-0.073 0.023-0.107 0.017-0.026 0.047-0.044 0.080-0.044 0.004 0 0.008 0 0.012 0.001l-0-0c0.001-0 0.002-0 0.004-0 0.033 0 0.062 0.016 0.080 0.040l0 0c0.019 0.025 0.031 0.057 0.031 0.092 0 0.001-0 0.003-0 0.004v-0 0.062h0.185v-0.073c0-0.001 0-0.002 0-0.003 0-0.044-0.008-0.086-0.024-0.124l0.001 0.002c-0.015-0.039-0.036-0.072-0.063-0.101l0 0zM13.86 19.531c-0.057-0.048-0.131-0.078-0.212-0.078h-0c-0.038 0-0.076 0.007-0.111 0.020-0.077 0.028-0.138 0.084-0.17 0.157l-0.001 0.002c-0.019 0.043-0.028 0.091-0.027 0.138v0.685c-0.001 0.048 0.008 0.096 0.027 0.14 0.017 0.037 0.041 0.070 0.072 0.096 0.029 0.026 0.062 0.047 0.099 0.060 0.033 0.013 0.071 0.020 0.111 0.020 0.082 0 0.156-0.030 0.213-0.080l-0 0c0.030-0.027 0.054-0.059 0.070-0.096 0.019-0.044 0.028-0.092 0.027-0.14v-0.685c0-0.002 0-0.004 0-0.006 0-0.048-0.010-0.093-0.028-0.134l0.001 0.002c-0.017-0.039-0.041-0.072-0.070-0.1l-0-0zM13.772 20.454c0 0.003 0 0.007 0 0.011 0 0.035-0.014 0.066-0.037 0.089l-0 0c-0.024 0.020-0.054 0.032-0.088 0.032s-0.064-0.012-0.088-0.032l0 0c-0.023-0.022-0.038-0.054-0.038-0.088 0-0.004 0-0.008 0.001-0.011l-0 0v-0.685c-0-0.003-0-0.007-0-0.011 0-0.035 0.014-0.066 0.037-0.088l0-0c0.024-0.020 0.054-0.032 0.088-0.032s0.064 0.012 0.088 0.032l-0-0c0.023 0.022 0.038 0.054 0.038 0.088 0 0.004-0 0.007-0.001 0.011l0-0v0.685zM15.316 20.76v-1.297h-0.179l-0.236 0.686h-0.003l-0.238-0.686h-0.178v1.297h0.185v-0.789h0.003l0.181 0.558h0.092l0.183-0.558h0.003v0.789h0.185zM16.369 19.554c-0.028-0.032-0.065-0.056-0.105-0.071-0.038-0.013-0.081-0.020-0.127-0.020-0.003 0-0.005 0-0.008 0h-0.275v1.297h0.185v-0.506h0.095c0.058 0.003 0.115-0.009 0.167-0.035 0.042-0.024 0.077-0.058 0.101-0.098l0.001-0.001c0.021-0.034 0.036-0.073 0.042-0.113 0.007-0.049 0.011-0.098 0.010-0.147 0.002-0.062-0.004-0.124-0.018-0.185-0.013-0.047-0.037-0.087-0.068-0.119l0 0zM16.273 19.949c-0.001 0.025-0.007 0.048-0.018 0.069l0-0.001c-0.011 0.020-0.027 0.036-0.047 0.045l-0.001 0c-0.023 0.011-0.049 0.017-0.078 0.017-0.003 0-0.007-0-0.010-0l0 0h-0.084v-0.441h0.095c0.003-0 0.006-0 0.009-0 0.027 0 0.053 0.006 0.076 0.017l-0.001-0c0.019 0.011 0.034 0.028 0.043 0.047l0 0.001c0.010 0.023 0.016 0.047 0.016 0.072v0.086c0 0.030 0.002 0.061 0 0.089h-0.002zM17.244 19.463h-0.152l-0.286 1.297h0.185l0.054-0.279h0.252l0.054 0.279h0.185l-0.293-1.297zM17.073 20.305l0.091-0.47h0.003l0.090 0.47h-0.185zM18.438 20.244h-0.003l-0.279-0.781h-0.178v1.297h0.185v-0.78h0.004l0.282 0.78h0.174v-1.297h-0.185v0.781zM19.567 19.463l-0.149 0.515h-0.004l-0.149-0.515h-0.196l0.254 0.749v0.548h0.185v-0.548l0.254-0.749h-0.196z"></path>
</symbol>
<symbol id="icon-client-three" viewBox="0 0 32 32">
<path fill="#afb1b8" style="fill: var(--color5, #afb1b8)" d="M12.876 20.271c0.006 0 0.012 0.003 0.016 0.006l-0-0 0.041 0.039c-0.032 0.032-0.071 0.057-0.116 0.075-0.052 0.019-0.107 0.028-0.164 0.027-0.053 0.001-0.105-0.008-0.154-0.025-0.045-0.016-0.084-0.040-0.116-0.071l0 0c-0.032-0.030-0.057-0.066-0.074-0.107l-0.001-0.002c-0.017-0.040-0.026-0.087-0.026-0.136 0-0.001 0-0.003 0-0.004v0c-0-0.002-0-0.005-0-0.007 0-0.096 0.042-0.182 0.108-0.241l0-0c0.035-0.031 0.077-0.055 0.123-0.071 0.051-0.017 0.104-0.026 0.159-0.025 0.003-0 0.006-0 0.010-0 0.049 0 0.096 0.008 0.14 0.024l-0.003-0.001c0.041 0.015 0.078 0.037 0.111 0.063l-0.034 0.042c-0.002 0.003-0.005 0.006-0.009 0.007l-0 0c-0.003 0.002-0.008 0.003-0.012 0.003-0.001 0-0.001-0-0.002-0h0c-0.006-0-0.011-0.002-0.015-0.004l0 0-0.018-0.011-0.026-0.014c-0.023-0.011-0.051-0.020-0.079-0.025l-0.002-0c-0.017-0.003-0.037-0.005-0.057-0.005-0.002 0-0.003 0-0.005 0h0c-0.001 0-0.002-0-0.004-0-0.040 0-0.077 0.007-0.112 0.020l0.002-0.001c-0.034 0.012-0.064 0.030-0.089 0.053-0.026 0.024-0.045 0.053-0.058 0.084s-0.021 0.068-0.021 0.107c0 0.001 0 0.003 0 0.004v-0c-0.001 0.038 0.006 0.076 0.021 0.112 0.014 0.033 0.033 0.060 0.057 0.083l0 0c0.024 0.023 0.053 0.040 0.085 0.052s0.069 0.018 0.106 0.018c0.021 0 0.042-0.001 0.063-0.004 0.052-0.005 0.099-0.026 0.136-0.058l-0 0c0.005-0.004 0.012-0.007 0.019-0.007h0zM14.062 20.073c0.001 0.047-0.009 0.095-0.028 0.139-0.018 0.043-0.044 0.078-0.077 0.107l-0 0c-0.034 0.030-0.075 0.054-0.119 0.070l-0.002 0.001c-0.047 0.016-0.1 0.025-0.156 0.025s-0.109-0.009-0.16-0.026l0.004 0.001c-0.047-0.017-0.087-0.041-0.121-0.071l0 0c-0.033-0.030-0.059-0.066-0.077-0.107l-0.001-0.002c-0.018-0.041-0.028-0.089-0.028-0.139s0.010-0.098 0.029-0.141l-0.001 0.002c0.018-0.041 0.044-0.078 0.078-0.109 0.034-0.030 0.075-0.053 0.12-0.068 0.047-0.016 0.1-0.025 0.156-0.025s0.11 0.009 0.159 0.026l-0.003-0.001c0.046 0.016 0.087 0.040 0.121 0.071s0.060 0.068 0.077 0.107c0.019 0.045 0.028 0.092 0.028 0.14zM13.954 20.073c0-0.002 0-0.004 0-0.006 0-0.038-0.007-0.074-0.020-0.108l0.001 0.002c-0.025-0.064-0.076-0.114-0.14-0.136l-0.002-0c-0.034-0.012-0.073-0.018-0.113-0.018s-0.080 0.007-0.116 0.019l0.003-0.001c-0.034 0.012-0.063 0.030-0.087 0.053l0-0c-0.024 0.023-0.043 0.051-0.055 0.082l-0.001 0.002c-0.012 0.033-0.020 0.071-0.020 0.111s0.007 0.078 0.020 0.114l-0.001-0.002c0.025 0.064 0.076 0.114 0.14 0.135l0.002 0c0.073 0.024 0.154 0.024 0.227 0 0.033-0.011 0.063-0.029 0.087-0.052 0.025-0.024 0.043-0.053 0.055-0.083 0.014-0.036 0.020-0.074 0.020-0.111zM14.871 20.191l0.011 0.025c0.004-0.009 0.008-0.017 0.012-0.025s0.008-0.017 0.013-0.024l0.262-0.414c0.005-0.007 0.010-0.012 0.015-0.013s0.012-0.002 0.018-0.002c0.001 0 0.002 0 0.004 0h0.077v0.674h-0.092v-0.517c-0-0.003-0-0.008-0-0.012s0-0.008 0-0.012l-0 0.001-0.264 0.42c-0.004 0.006-0.009 0.012-0.015 0.015l-0 0c-0.006 0.004-0.014 0.006-0.022 0.006-0 0-0 0-0.001 0h-0.015c-0 0-0 0-0.001 0-0.008 0-0.016-0.002-0.022-0.006l0 0c-0.007-0.004-0.012-0.009-0.015-0.015l-0-0-0.272-0.423v0.541h-0.089v-0.672h0.077c0.001-0 0.002-0 0.004-0 0.006 0 0.013 0.001 0.019 0.002l-0.001-0c0.006 0.003 0.011 0.007 0.014 0.013l0.268 0.415c0.005 0.008 0.010 0.016 0.013 0.024zM15.858 20.157v0.252h-0.102v-0.673h0.229c0.043-0.001 0.086 0.004 0.128 0.015 0.033 0.008 0.064 0.023 0.090 0.042 0.022 0.017 0.039 0.039 0.051 0.065l0 0.001c0.012 0.027 0.018 0.057 0.017 0.086 0 0.001 0 0.003 0 0.004 0 0.061-0.029 0.115-0.074 0.149l-0 0c-0.026 0.020-0.057 0.035-0.091 0.045s-0.074 0.016-0.115 0.016c-0.003 0-0.006-0-0.009-0h0l-0.124-0.002zM15.858 20.085h0.124c0.027 0 0.054-0.003 0.080-0.010 0.022-0.006 0.041-0.016 0.058-0.029l-0 0c0.029-0.024 0.047-0.060 0.047-0.1 0-0.001 0-0.001 0-0.002v0c0-0.002 0-0.005 0-0.007 0-0.017-0.004-0.034-0.011-0.048l0 0.001c-0.009-0.018-0.021-0.034-0.036-0.046l-0-0c-0.034-0.023-0.077-0.037-0.122-0.037-0.006 0-0.011 0-0.017 0.001l0.001-0h-0.124v0.277zM17.237 20.41h-0.081c-0 0-0.001 0-0.001 0-0.008 0-0.015-0.002-0.021-0.006l0 0c-0.006-0.004-0.010-0.009-0.013-0.015l-0-0-0.070-0.163h-0.351l-0.072 0.163c-0.006 0.013-0.019 0.022-0.035 0.022-0 0-0.001 0-0.001-0h-0.081l0.308-0.674h0.107l0.312 0.674zM16.729 20.16h0.29l-0.122-0.274c-0.009-0.021-0.017-0.042-0.023-0.063l-0.012 0.035c-0.004 0.011-0.008 0.021-0.011 0.029l-0.121 0.274zM17.681 19.74c0.006 0.003 0.011 0.007 0.015 0.012l0.449 0.508v-0.523h0.092v0.674h-0.051c-0 0-0.001 0-0.001 0-0.007 0-0.014-0.002-0.020-0.004l0 0c-0.006-0.003-0.012-0.007-0.016-0.012l-0-0-0.449-0.507c0 0.003 0 0.008 0 0.012s-0 0.008-0 0.012l0-0.001v0.501h-0.092v-0.674h0.054c0 0 0 0 0.001 0 0.006 0 0.013 0.001 0.018 0.003l-0-0zM18.994 20.142v0.267h-0.103v-0.267l-0.284-0.406h0.092c0.001-0 0.002-0 0.002-0 0.007 0 0.014 0.002 0.020 0.006l-0-0c0.006 0.005 0.010 0.010 0.014 0.015l0.177 0.262c0.007 0.011 0.013 0.021 0.018 0.031s0.009 0.019 0.013 0.028l0.013-0.029c0.006-0.012 0.011-0.022 0.018-0.032l-0 0.001 0.175-0.264c0.004-0.006 0.008-0.010 0.013-0.014l0-0c0.006-0.004 0.013-0.007 0.020-0.007 0.001 0 0.001 0 0.002 0h0.093l-0.284 0.408zM14.82 18.606c0.045 0.005 0.090 0.009 0.136 0.012 0.693-0.269 1.278-0.71 1.684-1.266s0.614-1.205 0.598-1.864l-0.763-0.663c0.155 0.702 0.082 1.427-0.21 2.095s-0.792 1.252-1.445 1.687z"></path>
<path fill="#afb1b8" style="fill: var(--color5, #afb1b8)" d="M14.548 18.575l0.021 0.003c0.697-0.433 1.229-1.038 1.526-1.737s0.346-1.459 0.141-2.182l-1.087-0.944c0.44 0.776 0.616 1.645 0.51 2.505s-0.491 1.676-1.111 2.354zM18.234 16.266c-0.185 0.724-0.633 1.377-1.279 1.862-0.176 0.134-0.375 0.26-0.585 0.368l-0.023 0.011c0.526-0.134 1.009-0.372 1.413-0.694s0.717-0.721 0.915-1.165l-0.441-0.383z"></path>
<path fill="#afb1b8" style="fill: var(--color5, #afb1b8)" d="M18.061 16.159l-0.628-0.545c-0.012 0.622-0.216 1.229-0.589 1.76s-0.904 0.964-1.536 1.256h0.003c0.141 0 0.281-0.008 0.421-0.022 0.591-0.209 1.112-0.543 1.519-0.97s0.684-0.935 0.81-1.479zM14.638 13.317l-0.749-0.651c-0.669 0.225-1.245 0.62-1.652 1.134s-0.625 1.122-0.627 1.746c0.002 0.689 0.269 1.358 0.759 1.9s1.172 0.927 1.941 1.094c0.687-0.727 1.089-1.625 1.148-2.564s-0.228-1.87-0.82-2.658zM19.791 16.059c-0.003-0.817-0.378-1.601-1.043-2.179s-1.567-0.904-2.508-0.906c-0.435-0.001-0.866 0.069-1.271 0.206l4.584 3.983c0.149-0.324 0.237-0.704 0.237-1.104v-0z"></path>
</symbol>
<symbol id="icon-client-four" viewBox="0 0 32 32">
<path fill="#2196f3" style="fill: var(--color4, #2196f3)" d="M10.569 15h-0.001c-0.451 0-0.817 0.325-0.817 0.726v0.001c0 0.401 0.366 0.726 0.817 0.726h0.001c0.451 0 0.817-0.325 0.817-0.726v-0.001c0-0.401-0.366-0.726-0.817-0.726zM16.601 14.768c-0.001-0.557-0.251-1.091-0.694-1.485s-1.044-0.616-1.671-0.617c-0.627 0.001-1.228 0.223-1.672 0.617s-0.693 0.928-0.695 1.486v3.073s4.731-0.468 4.732-3.072v-0.001zM8.094 18.849c0.001 0.388 0.175 0.759 0.483 1.033s0.726 0.429 1.163 0.43c0.436-0.001 0.854-0.156 1.163-0.43s0.482-0.645 0.483-1.033v-2.138s-3.292 0.326-3.292 2.137zM9.74 19.232c-0.085 0-0.168-0.022-0.239-0.065-0.069-0.041-0.123-0.099-0.158-0.169l-0.001-0.002c-0.021-0.043-0.033-0.093-0.033-0.146 0-0.027 0.003-0.052 0.009-0.077l-0 0.002c0.017-0.074 0.058-0.143 0.118-0.196s0.137-0.090 0.221-0.105c0.025-0.005 0.055-0.007 0.084-0.007 0.059 0 0.116 0.011 0.168 0.030l-0.003-0.001c0.079 0.029 0.146 0.078 0.193 0.141s0.073 0.137 0.073 0.213c0 0 0 0.001 0 0.001 0 0.053-0.012 0.103-0.033 0.148l0.001-0.002c-0.023 0.049-0.055 0.090-0.093 0.124l-0 0c-0.040 0.036-0.088 0.064-0.14 0.084-0.049 0.018-0.105 0.029-0.165 0.029-0 0-0.001 0-0.001 0h0v-0.002zM12.749 18.546v0.803h-0.165v-0.803h0.166zM13.069 18.89v0.129h-0.365v-0.129h0.365zM13.108 18.546v0.13h-0.404v-0.13h0.404zM13.863 18.929v0.038c0 0.061-0.008 0.116-0.025 0.164s-0.040 0.089-0.070 0.125l0-0c-0.030 0.034-0.066 0.060-0.108 0.078-0.039 0.017-0.085 0.027-0.134 0.027-0.002 0-0.003 0-0.005-0h0c-0.050 0-0.097-0.009-0.139-0.027s-0.079-0.045-0.108-0.077l-0-0c-0.031-0.035-0.055-0.076-0.070-0.122l-0.001-0.003c-0.016-0.047-0.025-0.101-0.025-0.157 0-0.003 0-0.005 0-0.008v0-0.038c0-0.061 0.008-0.116 0.025-0.164s0.040-0.090 0.070-0.124c0.030-0.034 0.067-0.060 0.108-0.078s0.088-0.027 0.139-0.027c0.051 0 0.097 0.009 0.138 0.027s0.078 0.044 0.108 0.078c0.030 0.034 0.054 0.076 0.071 0.124s0.025 0.103 0.025 0.164zM13.696 18.967v-0.039c0-0.043-0.004-0.080-0.011-0.113-0.007-0.031-0.019-0.058-0.035-0.083l0.001 0.001c-0.014-0.021-0.033-0.038-0.054-0.049l-0.001-0c-0.021-0.011-0.045-0.017-0.072-0.017-0.001 0-0.002 0-0.003 0h0c-0.028 0-0.053 0.006-0.075 0.017s-0.041 0.029-0.054 0.049l-0 0.001c-0.015 0.023-0.027 0.051-0.033 0.080l-0 0.002c-0.007 0.032-0.012 0.069-0.012 0.106 0 0.002 0 0.004 0 0.007v-0 0.039c0 0.042 0.004 0.080 0.011 0.112s0.019 0.060 0.034 0.082c0.015 0.022 0.034 0.039 0.055 0.050s0.046 0.017 0.075 0.017c0.028 0 0.053-0.006 0.074-0.017s0.041-0.029 0.054-0.050l0-0.001c0.015-0.023 0.026-0.050 0.034-0.082s0.011-0.070 0.011-0.112zM14.4 19.139c0-0 0-0.001 0-0.002 0-0.013-0.002-0.026-0.007-0.038l0 0.001c-0.005-0.013-0.013-0.024-0.023-0.032l-0-0c-0.014-0.011-0.030-0.021-0.046-0.029l-0.001-0.001c-0.021-0.010-0.048-0.020-0.075-0.029l-0.005-0.001c-0.042-0.014-0.077-0.027-0.11-0.042l0.006 0.003c-0.033-0.015-0.061-0.032-0.087-0.052l0.001 0.001c-0.024-0.019-0.043-0.042-0.058-0.068l-0.001-0.001c-0.013-0.025-0.021-0.055-0.021-0.087 0-0.001 0-0.003 0-0.004v0c0-0.034 0.008-0.064 0.022-0.091s0.035-0.051 0.062-0.071c0.027-0.020 0.058-0.035 0.094-0.046s0.076-0.016 0.12-0.016c0.059 0 0.111 0.011 0.155 0.032s0.078 0.050 0.103 0.088c0.025 0.037 0.037 0.080 0.037 0.127h-0.164c0-0.001 0-0.002 0-0.002 0-0.022-0.006-0.042-0.015-0.060l0 0.001c-0.010-0.018-0.025-0.033-0.043-0.042l-0.001-0c-0.020-0.010-0.043-0.015-0.068-0.015-0.002 0-0.004 0-0.006 0h0c-0.002-0-0.004-0-0.006-0-0.024 0-0.047 0.005-0.067 0.014l0.001-0c-0.018 0.007-0.032 0.019-0.043 0.034l-0 0c-0.009 0.013-0.014 0.030-0.014 0.047 0 0 0 0.001 0 0.001v-0c0 0.014 0.003 0.026 0.010 0.037 0.008 0.012 0.019 0.022 0.030 0.030l0 0c0.014 0.010 0.030 0.019 0.050 0.027s0.043 0.017 0.069 0.025c0.044 0.013 0.082 0.028 0.115 0.045 0.032 0.015 0.060 0.034 0.084 0.056l-0-0c0.023 0.021 0.040 0.044 0.051 0.070s0.017 0.056 0.017 0.089c0 0.002 0 0.005 0 0.008 0 0.064-0.031 0.121-0.079 0.156l-0.001 0c-0.026 0.019-0.056 0.034-0.092 0.043s-0.075 0.015-0.12 0.015c-0.042-0-0.082-0.006-0.121-0.016l0.003 0.001c-0.040-0.011-0.075-0.027-0.107-0.049l0.001 0.001c-0.031-0.021-0.056-0.049-0.074-0.081l-0.001-0.001c-0.019-0.033-0.028-0.072-0.028-0.117h0.166c0 0.025 0.004 0.046 0.012 0.063s0.018 0.031 0.032 0.042l0 0c0.014 0.011 0.031 0.019 0.050 0.023l0.001 0c0.020 0.005 0.041 0.007 0.065 0.007 0.002 0 0.004 0 0.006 0 0.023 0 0.046-0.005 0.066-0.013l-0.001 0c0.033-0.013 0.055-0.044 0.055-0.081 0-0 0-0.001 0-0.001v0zM15.037 18.546v0.803h-0.165v-0.803h0.165zM15.284 18.546v0.13h-0.655v-0.13h0.655zM15.917 19.22v0.129h-0.427v-0.129h0.427zM15.544 18.546v0.803h-0.166v-0.803h0.166zM15.862 18.874v0.126h-0.372v-0.126h0.372zM15.917 18.546v0.13h-0.427v-0.13h0.427zM16.014 18.546h0.299c0.062 0 0.114 0.009 0.159 0.028s0.079 0.046 0.102 0.081c0.024 0.036 0.036 0.080 0.036 0.133 0 0.043-0.007 0.080-0.022 0.111s-0.035 0.056-0.061 0.076l-0 0c-0.026 0.020-0.057 0.037-0.090 0.048l-0.002 0.001-0.052 0.028h-0.26l-0.001-0.129h0.194c0.002 0 0.003 0 0.005 0 0.024 0 0.047-0.006 0.068-0.016l-0.001 0c0.019-0.010 0.033-0.024 0.043-0.042l0-0.001c0.009-0.018 0.015-0.039 0.015-0.061 0-0.001 0-0.002-0-0.003v0c0-0.001 0-0.003 0-0.004 0-0.023-0.005-0.045-0.015-0.064l0 0.001c-0.010-0.019-0.025-0.034-0.043-0.043l-0.001-0c-0.020-0.010-0.043-0.015-0.068-0.015-0.002 0-0.004 0-0.006 0h-0.134v0.674h-0.166v-0.803zM16.463 19.349l-0.183-0.358 0.175-0.001 0.185 0.351v0.008h-0.177zM17.331 19.063h-0.205v-0.129h0.205c0.002 0 0.004 0 0.007 0 0.026 0 0.050-0.006 0.072-0.016l-0.001 0c0.019-0.010 0.034-0.025 0.043-0.043l0-0.001c0.009-0.019 0.014-0.041 0.014-0.065s-0.005-0.046-0.014-0.066l0 0.001c-0.009-0.021-0.024-0.038-0.043-0.050l-0-0c-0.020-0.012-0.045-0.019-0.071-0.019-0.002 0-0.004 0-0.006 0h-0.147v0.674h-0.166v-0.803h0.313c0.063 0 0.117 0.011 0.162 0.034s0.080 0.053 0.104 0.093 0.036 0.085 0.036 0.136c0 0.052-0.012 0.097-0.036 0.135s-0.058 0.067-0.104 0.088c-0.045 0.021-0.099 0.031-0.162 0.031zM18.285 19.22v0.129h-0.427v-0.129h0.427zM17.912 18.546v0.803h-0.165v-0.803h0.165zM18.23 18.874v0.126h-0.372v-0.126h0.372zM18.285 18.546v0.13h-0.427v-0.13h0.427zM18.752 18.546v0.803h-0.165v-0.803h0.165zM18.999 18.546v0.13h-0.655v-0.13h0.655zM19.632 19.22v0.129h-0.427v-0.129h0.427zM19.259 18.546v0.803h-0.165v-0.803h0.165zM19.576 18.874v0.126h-0.372v-0.126h0.372zM19.632 18.546v0.13h-0.427v-0.13h0.427zM19.729 18.546h0.299c0.061 0 0.114 0.009 0.158 0.028s0.079 0.046 0.103 0.081c0.024 0.036 0.036 0.080 0.036 0.133 0 0.043-0.007 0.080-0.022 0.111s-0.035 0.056-0.061 0.076l-0 0c-0.026 0.020-0.057 0.037-0.090 0.048l-0.002 0.001-0.053 0.028h-0.26l-0.001-0.129h0.194c0.002 0 0.003 0 0.005 0 0.024 0 0.047-0.006 0.068-0.016l-0.001 0c0.018-0.010 0.033-0.024 0.043-0.042l0-0.001c0.009-0.018 0.015-0.039 0.015-0.061 0-0.001 0-0.002-0-0.003v0c0-0.001 0-0.003 0-0.004 0-0.023-0.005-0.044-0.015-0.064l0 0.001c-0.010-0.019-0.025-0.033-0.043-0.043l-0.001-0c-0.020-0.010-0.044-0.015-0.068-0.015-0.002 0-0.004 0-0.005 0h-0.134v0.674h-0.165v-0.803zM20.177 19.349l-0.183-0.358 0.175-0.001 0.185 0.351v0.008h-0.177zM20.87 19.139c0-0 0-0.001 0-0.001 0-0.013-0.002-0.026-0.007-0.038l0 0.001c-0.005-0.013-0.013-0.024-0.023-0.032l-0-0c-0.014-0.011-0.030-0.021-0.047-0.029l-0.001-0.001c-0.021-0.010-0.048-0.020-0.075-0.029l-0.005-0.001c-0.042-0.014-0.077-0.027-0.11-0.042l0.006 0.003c-0.033-0.015-0.061-0.032-0.087-0.052l0.001 0.001c-0.024-0.019-0.043-0.042-0.058-0.068l-0.001-0.001c-0.013-0.025-0.021-0.055-0.021-0.087 0-0.002 0-0.003 0-0.005v0c0-0.001-0-0.002-0-0.003 0-0.032 0.008-0.063 0.023-0.089l-0 0.001c0.015-0.028 0.035-0.051 0.062-0.071s0.058-0.035 0.092-0.045l0.002-0c0.036-0.011 0.076-0.016 0.12-0.016 0.059 0 0.111 0.011 0.155 0.032s0.078 0.050 0.102 0.088c0.025 0.037 0.037 0.080 0.037 0.127h-0.164c0-0.001 0-0.002 0-0.002 0-0.022-0.006-0.042-0.015-0.060l0 0.001c-0.010-0.018-0.025-0.033-0.044-0.042l-0.001-0c-0.020-0.010-0.043-0.015-0.068-0.015-0.002 0-0.004 0-0.006 0h0c-0.002-0-0.004-0-0.006-0-0.024 0-0.046 0.005-0.067 0.014l0.001-0c-0.018 0.007-0.032 0.019-0.043 0.034l-0 0c-0.009 0.013-0.014 0.030-0.014 0.047 0 0 0 0.001 0 0.001v-0c0 0.014 0.003 0.026 0.010 0.037 0.008 0.012 0.019 0.022 0.030 0.030l0 0c0.014 0.010 0.030 0.019 0.050 0.027s0.043 0.017 0.069 0.025c0.044 0.013 0.082 0.028 0.115 0.045s0.061 0.035 0.084 0.056c0.022 0.021 0.039 0.044 0.051 0.070s0.017 0.056 0.017 0.089c0 0.035-0.007 0.066-0.021 0.094s-0.033 0.051-0.059 0.070c-0.026 0.019-0.056 0.034-0.092 0.043s-0.076 0.015-0.12 0.015c-0.042-0-0.082-0.006-0.121-0.016l0.003 0.001c-0.040-0.011-0.075-0.027-0.107-0.049l0.001 0.001c-0.031-0.021-0.056-0.049-0.074-0.081l-0.001-0.001c-0.019-0.033-0.028-0.072-0.028-0.117h0.166c0 0.025 0.004 0.046 0.012 0.063s0.018 0.031 0.032 0.042l0 0c0.014 0.011 0.031 0.019 0.050 0.023l0.001 0c0.020 0.005 0.042 0.007 0.065 0.007 0.002 0 0.004 0 0.006 0 0.023 0 0.046-0.005 0.066-0.013l-0.001 0c0.033-0.013 0.055-0.044 0.055-0.081 0-0 0-0.001 0-0.001v0z"></path>
</symbol>
<symbol id="icon-client-five" viewBox="0 0 32 32">
<path fill="#afb1b8" style="fill: var(--color5, #afb1b8)" d="M11.060 19.449c0.046 0.052 0.070 0.117 0.069 0.184 0 0.004 0 0.009 0 0.014 0 0.041-0.009 0.080-0.026 0.115l0.001-0.002c-0.020 0.042-0.048 0.077-0.082 0.105l-0.001 0c-0.078 0.054-0.174 0.086-0.278 0.086-0.011 0-0.023-0-0.034-0.001l0.002 0h-0.547v-1.165h0.535c0.009-0.001 0.021-0.001 0.032-0.001 0.098 0 0.19 0.029 0.267 0.079l-0.002-0.001c0.035 0.027 0.062 0.060 0.080 0.098s0.026 0.079 0.024 0.12c0.003 0.064-0.019 0.127-0.062 0.178-0.042 0.046-0.099 0.078-0.163 0.091 0.072 0.012 0.138 0.047 0.184 0.1zM10.419 19.273h0.229c0.052 0.003 0.104-0.010 0.146-0.039 0.017-0.014 0.030-0.031 0.039-0.051l0-0.001c0.007-0.015 0.011-0.033 0.011-0.051 0-0.004-0-0.008-0.001-0.012l0 0c0-0.003 0-0.006 0-0.010 0-0.019-0.004-0.037-0.011-0.053l0 0.001c-0.009-0.021-0.022-0.038-0.038-0.052l-0-0c-0.037-0.025-0.083-0.040-0.132-0.040-0.006 0-0.013 0-0.019 0.001l0.001-0h-0.225v0.306zM10.816 19.72c0.018-0.014 0.032-0.032 0.042-0.053l0-0.001c0.008-0.016 0.012-0.036 0.012-0.056 0-0.003-0-0.006-0-0.010l0 0c0-0.003 0-0.006 0-0.009 0-0.021-0.005-0.041-0.013-0.058l0 0.001c-0.010-0.021-0.025-0.039-0.043-0.053l-0-0c-0.039-0.027-0.088-0.043-0.14-0.043-0.005 0-0.011 0-0.016 0l0.001-0h-0.24v0.321h0.243c0.055 0.003 0.109-0.011 0.154-0.040zM12.154 19.95l-0.298-0.456h-0.112v0.456h-0.256v-1.166h0.485c0.010-0.001 0.022-0.001 0.034-0.001 0.114 0 0.22 0.038 0.304 0.101l-0.001-0.001c0.068 0.063 0.109 0.146 0.115 0.235 0.001 0.007 0.001 0.016 0.001 0.024 0 0.085-0.030 0.163-0.081 0.223l0-0.001c-0.060 0.062-0.14 0.105-0.229 0.118l-0.002 0 0.317 0.466h-0.279zM11.745 19.336h0.21c0.146 0 0.218-0.059 0.218-0.176 0-0.003 0-0.006 0-0.010 0-0.022-0.004-0.043-0.013-0.062l0 0.001c-0.010-0.024-0.024-0.044-0.041-0.060l-0-0c-0.040-0.030-0.090-0.048-0.145-0.048-0.007 0-0.014 0-0.021 0.001l0.001-0h-0.212l0.002 0.355zM13.555 19.715h-0.511l-0.090 0.235h-0.269l0.469-1.152h0.29l0.467 1.152h-0.268l-0.088-0.235zM13.486 19.539l-0.187-0.492-0.187 0.492h0.373zM15.308 19.95h-0.254l-0.57-0.792v0.792h-0.254v-1.166h0.254l0.57 0.797v-0.797h0.254v1.166zM16.759 19.671c-0.053 0.088-0.133 0.159-0.23 0.206-0.099 0.047-0.215 0.074-0.337 0.074-0.007 0-0.015-0-0.022-0l0.001 0h-0.453v-1.166h0.453c0.006-0 0.014-0 0.021-0 0.122 0 0.238 0.026 0.342 0.074l-0.005-0.002c0.097 0.045 0.177 0.116 0.23 0.203 0.052 0.095 0.080 0.2 0.080 0.306s-0.027 0.211-0.080 0.306zM16.468 19.643c0.069-0.072 0.112-0.17 0.112-0.278v-0c0-0.102-0.040-0.201-0.112-0.278-0.079-0.062-0.18-0.1-0.289-0.1-0.010 0-0.020 0-0.030 0.001l0.001-0h-0.177v0.754h0.177c0.009 0.001 0.019 0.001 0.029 0.001 0.11 0 0.21-0.038 0.29-0.101l-0.001 0.001zM13.714 12.302s3.283 1.135 3.213 2.776v2.778s-3.28-1.135-3.212-2.777l-0.001-2.777zM19.851 17.206c0.62-0.391 1.337-0.632 2.086-0.704v-0.869c-0.863 0.304-1.594 0.856-2.086 1.573z"></path>
<path fill="#afb1b8" style="fill: var(--color5, #afb1b8)" d="M19.479 17.467c0.507-0.936 1.387-1.657 2.458-2.017v-2.505s-4.675 1.616-4.576 3.954v3.954s0.208-0.072 0.536-0.208c0-0.127 0-0.254 0.015-0.382 0.097-1.086 0.66-2.091 1.567-2.797z"></path>
<path fill="#afb1b8" style="fill: var(--color5, #afb1b8)" d="M19.034 18.936c0.024-0.274 0.079-0.546 0.164-0.81-0.565 0.609-0.907 1.365-0.977 2.161-0.007 0.075-0.011 0.15-0.013 0.228 0.39-0.171 0.685-0.316 0.974-0.471l-0.075 0.037c-0.083-0.377-0.107-0.762-0.073-1.145zM19.22 18.951c-0.009 0.096-0.014 0.208-0.014 0.32 0 0.254 0.026 0.501 0.076 0.74l-0.004-0.023c1.277-0.7 2.712-1.781 2.657-3.088v-0.114c-0.913 0.094-1.766 0.459-2.43 1.040-0.146 0.329-0.248 0.711-0.284 1.111l-0.001 0.014z"></path>
</symbol>
<symbol id="icon-client-six" viewBox="0 0 32 32">
<path fill="#afb1b8" style="fill: var(--color5, #afb1b8)" d="M16.080 16.187c-0.072-0.093-0.115-0.21-0.115-0.338 0-0.013 0-0.025 0.001-0.038l-0 0.002v-0.543c0-0.166 0.038-0.293 0.113-0.379s0.205-0.13 0.389-0.129c0.173 0 0.295 0.037 0.368 0.111 0.079 0.094 0.117 0.209 0.109 0.325v0.128h-0.309v-0.129c0.001-0.042-0.002-0.085-0.009-0.126-0.005-0.031-0.021-0.057-0.044-0.075l-0-0c-0.028-0.019-0.062-0.030-0.099-0.030-0.005 0-0.009 0-0.014 0.001l0.001-0c-0.004-0-0.009-0-0.013-0-0.039 0-0.075 0.012-0.105 0.032l0.001-0c-0.026 0.021-0.044 0.049-0.051 0.082l-0 0.001c-0.008 0.037-0.012 0.080-0.012 0.124 0 0.004 0 0.007 0 0.011v-0.001 0.659c-0.005 0.063 0.009 0.127 0.040 0.185 0.016 0.020 0.037 0.035 0.061 0.044l0.001 0c0.025 0.010 0.053 0.013 0.080 0.010 0.004 0 0.008 0 0.013 0 0.036 0 0.069-0.011 0.097-0.031l-0.001 0c0.024-0.020 0.041-0.048 0.046-0.079l0-0.001c0.006-0.036 0.010-0.077 0.010-0.118 0-0.005-0-0.009-0-0.014v0.001-0.134h0.309v0.122c0.001 0.010 0.001 0.021 0.001 0.032 0 0.117-0.041 0.225-0.109 0.31l0.001-0.001c-0.071 0.081-0.192 0.121-0.37 0.121s-0.312-0.043-0.388-0.133zM17.366 16.193c-0.078-0.085-0.117-0.208-0.117-0.37v-0.571c0-0.161 0.039-0.283 0.117-0.366s0.208-0.124 0.391-0.124c0.182 0 0.311 0.041 0.389 0.124s0.118 0.205 0.118 0.366v0.571c0 0.161-0.040 0.285-0.119 0.37s-0.208 0.127-0.388 0.127-0.313-0.043-0.392-0.127zM17.901 16.056c0.028-0.053 0.041-0.111 0.037-0.169v-0.699c0-0.006 0.001-0.012 0.001-0.019 0-0.054-0.014-0.104-0.038-0.148l0.001 0.002c-0.016-0.020-0.038-0.036-0.062-0.045l-0.001-0c-0.018-0.007-0.039-0.011-0.061-0.011-0.007 0-0.015 0-0.022 0.001l0.001-0c-0.006-0.001-0.014-0.001-0.021-0.001-0.022 0-0.043 0.004-0.062 0.011l0.001-0c-0.026 0.010-0.047 0.025-0.063 0.045l-0 0c-0.028 0.052-0.041 0.108-0.037 0.166v0.702c-0.004 0.058 0.009 0.116 0.037 0.169 0.018 0.018 0.040 0.032 0.065 0.042 0.024 0.009 0.051 0.015 0.079 0.015s0.056-0.006 0.081-0.015l-0.001 0.001c0.025-0.010 0.047-0.024 0.065-0.042l-0 0v-0.003zM18.636 14.778h0.332l0.25 1.053 0.256-1.053h0.324l0.033 1.52h-0.239l-0.026-1.057-0.247 1.057h-0.192l-0.256-1.061-0.024 1.061h-0.242l0.030-1.52zM20.203 14.778h0.518c0.298 0 0.448 0.144 0.448 0.432 0 0.276-0.157 0.413-0.471 0.413h-0.176v0.676h-0.32l0.002-1.52zM20.646 15.428c0.032 0.004 0.064 0.001 0.094-0.007s0.058-0.022 0.082-0.041c0.037-0.051 0.053-0.112 0.046-0.172 0-0.005 0-0.011 0-0.017 0-0.043-0.006-0.085-0.017-0.125l0.001 0.003c-0.005-0.016-0.013-0.030-0.024-0.042l0 0c-0.011-0.012-0.025-0.023-0.040-0.030l-0.001-0c-0.037-0.016-0.081-0.025-0.126-0.025-0.006 0-0.012 0-0.017 0l0.001-0h-0.124v0.454h0.124zM21.63 14.778h0.344l0.352 1.52h-0.298l-0.070-0.351h-0.306l-0.072 0.351h-0.302l0.352-1.52zM21.924 15.772l-0.12-0.638-0.12 0.638h0.239zM22.61 14.778h0.224l0.428 0.867v-0.867h0.265v1.52h-0.213l-0.431-0.905v0.905h-0.274l0.001-1.52zM24.149 15.719l-0.356-0.939h0.3l0.217 0.603 0.204-0.603h0.294l-0.352 0.939v0.58h-0.307v-0.58zM16.574 16.963v0.080h-0.261v0.618h-0.109v-0.618h-0.262v-0.079h0.632zM17.392 17.661h-0.085c-0.001 0-0.002 0-0.002 0-0.008 0-0.015-0.003-0.021-0.007l0 0c-0.006-0.004-0.011-0.009-0.014-0.016l-0-0-0.075-0.166h-0.362l-0.075 0.166c-0.002 0.007-0.006 0.014-0.012 0.019v0c-0.006 0.004-0.014 0.007-0.022 0.007-0.001 0-0.001-0-0.002-0h-0.084l0.32-0.697h0.111l0.324 0.695zM16.862 17.402h0.302l-0.128-0.284c-0.008-0.018-0.016-0.040-0.023-0.062l-0.001-0.004c-0.005 0.013-0.008 0.026-0.012 0.037l-0.012 0.029-0.127 0.283zM17.943 17.592c0.020 0.001 0.040 0.001 0.060 0 0.017-0.002 0.034-0.005 0.051-0.008 0.016-0.003 0.031-0.008 0.046-0.013s0.028-0.011 0.043-0.017v-0.157h-0.128c-0 0-0.001 0-0.001 0-0.006 0-0.012-0.002-0.016-0.006l0 0c-0.002-0.001-0.004-0.003-0.005-0.006l-0-0c-0.001-0.002-0.002-0.004-0.002-0.006 0-0 0-0 0-0.001v0-0.054h0.248v0.267c-0.039 0.024-0.084 0.044-0.131 0.056l-0.003 0.001c-0.026 0.007-0.053 0.011-0.080 0.015s-0.059 0.004-0.092 0.004c-0.001 0-0.001 0-0.002 0h0c-0.001 0-0.003 0-0.004 0-0.056 0-0.11-0.010-0.161-0.027l0.003 0.001c-0.049-0.017-0.092-0.042-0.129-0.073l0.001 0c-0.034-0.030-0.062-0.067-0.082-0.108l-0.001-0.002c-0.019-0.041-0.029-0.089-0.029-0.14 0-0.002 0-0.003 0-0.005v0c-0-0.001-0-0.003-0-0.004 0-0.051 0.011-0.1 0.030-0.144l-0.001 0.002c0.018-0.041 0.047-0.079 0.082-0.11s0.080-0.056 0.128-0.072c0.055-0.018 0.113-0.027 0.171-0.026 0.030 0 0.059 0.002 0.089 0.006 0.026 0.004 0.052 0.009 0.076 0.018 0.023 0.007 0.044 0.017 0.064 0.028s0.038 0.023 0.056 0.036l-0.031 0.043c-0.003 0.004-0.006 0.007-0.010 0.009l-0 0c-0.004 0.002-0.009 0.004-0.015 0.004h-0c-0.007-0-0.014-0.002-0.020-0.006l0 0c-0.013-0.006-0.023-0.012-0.033-0.018l0.002 0.001c-0.012-0.007-0.026-0.013-0.041-0.018l-0.002-0.001c-0.016-0.006-0.036-0.011-0.056-0.015l-0.002-0c-0.023-0.004-0.050-0.006-0.077-0.006-0.002 0-0.003 0-0.005 0h0c-0.001 0-0.003-0-0.004-0-0.043 0-0.084 0.007-0.122 0.020l0.003-0.001c-0.036 0.012-0.068 0.031-0.094 0.055-0.025 0.024-0.045 0.053-0.059 0.085l-0.001 0.002c-0.014 0.035-0.021 0.074-0.021 0.116s0.008 0.082 0.022 0.118l-0.001-0.002c0.014 0.033 0.036 0.063 0.064 0.088 0.026 0.024 0.058 0.043 0.093 0.055 0.041 0.012 0.084 0.017 0.127 0.014zM18.962 17.581h0.349v0.080h-0.456v-0.697h0.109l-0.003 0.618zM19.675 17.661h-0.109v-0.697h0.109v0.697zM20.081 16.967c0.007 0.003 0.012 0.008 0.017 0.013l0 0 0.467 0.526c-0-0.004-0-0.008-0-0.012s0-0.009 0-0.013l-0 0.001v-0.52h0.095v0.7h-0.055c-0.001 0-0.002 0-0.004 0-0.007 0-0.014-0.002-0.021-0.004l0 0c-0.007-0.003-0.012-0.008-0.017-0.013l-0-0-0.467-0.525v0.542h-0.091v-0.697h0.057c0.006 0 0.012 0.001 0.018 0.003zM21.466 16.963v0.077h-0.387v0.23h0.314v0.074h-0.314v0.238h0.387v0.077h-0.5v-0.696h0.5zM10.007 12.657l4.856 1.19v4.171l-4.856-1.19v-4.172zM9.695 12.302v4.73l5.478 1.343v-4.729l-5.478-1.344z"></path>
<path fill="#afb1b8" style="fill: var(--color5, #afb1b8)" d="M12.631 20.57l-5.478-1.345v-4.729l5.478 1.344v4.73z"></path>
<path fill="#afb1b8" style="fill: var(--color5, #afb1b8)" d="M9.786 12.604l4.792 1.175-2.038 1.76-4.793-1.176 2.039-1.759zM9.695 12.302l-2.543 2.195 5.478 1.344 2.542-2.195-5.478-1.344zM12.939 20.304l2.234-1.929-2.234-0.548v2.477z"></path>
</symbol>
<symbol id="icon-twitter-footer" viewBox="0 0 32 32">
<path fill="#231f20" style="fill: var(--color6, #231f20)" d="M27.315 4.686c6.249 6.249 6.249 16.379 0 22.628s-16.379 6.249-22.628 0c-6.249-6.249-6.249-16.379 0-22.628s16.379-6.249 22.628 0z"></path>
<path fill="#fff" style="fill: var(--color7, #fff)" d="M16.177 13.156c-0.788-4.151 4.205-6.622 7.148-3.629 0 0 1.314-0.368 2.47-1.104-0.352 0.972-0.994 1.768-1.822 2.302l-0.018 0.011s1.577-0.21 2.26-0.63c0 0-0.683 1.419-1.945 1.944 0.683 9.516-9.565 15.297-17.866 10.567 0 0 4.1 0.213 5.835-1.787 0 0-2.523 0.213-3.784-2.838 0 0 0.946 0.368 1.892-0.105 0 0-2.943-0.473-3.202-3.994 0 0 0.946 0.736 1.997 0.473 0 0-3.258-1.945-1.423-5.466 0 0 3.469 4.412 8.462 4.257z"></path>
</symbol>
<symbol id="icon-linkedin-footer" viewBox="0 0 32 32">
<path fill="#231f20" style="fill: var(--color6, #231f20)" d="M27.315 4.686c6.249 6.249 6.249 16.379 0 22.628s-16.379 6.249-22.628 0c-6.249-6.249-6.249-16.379 0-22.628s16.379-6.249 22.628 0z"></path>
<path fill="#fff" style="fill: var(--color7, #fff)" d="M7.101 12.788h3.604v12.097h-3.604zM8.88 6.65c1.204 0 2.18 0.976 2.18 2.18s-0.976 2.18-2.18 2.18v0c-1.201 0-2.135-0.978-2.135-2.18s0.934-2.18 2.135-2.18zM12.839 12.788h3.558v1.691c0.75-1.106 2-1.824 3.419-1.824 0.002 0 0.004 0 0.006 0h0.979c2.256 0.010 4.082 1.836 4.092 4.091v8.142h-3.558v-6.539c-0.045-1.379-0.979-2.447-2.358-2.447s-2.536 1.067-2.58 2.447v6.539h-3.558z"></path>
</symbol>
<symbol id="icon-instagram-footer" viewBox="0 0 32 32">
<path fill="#231f20" style="fill: var(--color6, #231f20)" d="M27.315 4.686c6.249 6.249 6.249 16.379 0 22.628s-16.379 6.249-22.628 0c-6.249-6.249-6.249-16.379 0-22.628s16.379-6.249 22.628 0z"></path>
<path fill="#fff" style="fill: var(--color7, #fff)" d="M11.294 5.808c-3.020 0-5.511 2.487-5.511 5.511v9.363c0 3.024 2.488 5.511 5.511 5.511h9.414c3.024 0 5.511-2.487 5.511-5.511v-9.363c0-3.024-2.487-5.511-5.511-5.511h-9.414zM21.486 9.366h0.001c-0.006-0-0.011-0-0.017-0-0.637 0-1.154 0.517-1.154 1.154 0 0.006 0 0.011 0 0.016v-0.001c-0 0.006-0 0.011-0 0.017 0 0.638 0.517 1.155 1.155 1.155 0.005 0 0.011-0 0.015-0h0.001c0.642-0.009 1.161-0.528 1.17-1.171v-0.001c-0.009-0.642-0.528-1.16-1.171-1.169zM15.975 10.441c-3.020 0-5.511 2.536-5.511 5.56 0 3.068 2.488 5.559 5.511 5.559h0.049c3.024 0 5.56-2.487 5.56-5.559 0-3.024-2.536-5.56-5.56-5.56h-0.049zM15.975 12.343h0.049c2 0 3.658 1.658 3.658 3.658 0 2.048-1.658 3.706-3.658 3.706h-0.049c-1.999 0-3.657-1.658-3.657-3.706 0-2 1.658-3.658 3.657-3.658zM11.343 7.564h9.314c2.1 0.002 3.801 1.704 3.804 3.803v9.27c-0.003 2.1-1.704 3.801-3.804 3.804h-9.314c-2.098-0.005-3.798-1.706-3.8-3.804v-9.27c0.002-2.1 1.704-3.801 3.803-3.803h0z"></path>
</symbol>
<symbol id="icon-facebook-footer" viewBox="0 0 32 32">
<path fill="#231f20" style="fill: var(--color6, #231f20)" d="M27.315 4.686c6.249 6.249 6.249 16.379 0 22.628s-16.379 6.249-22.628 0c-6.249-6.249-6.249-16.379 0-22.628s16.379-6.249 22.628 0z"></path>
<path fill="#fff" style="fill: var(--color7, #fff)" d="M13 28.073h4.363v-10.070h3.224l0.645-4.067h-3.869v-3.075c0-1.139 1.092-1.785 2.135-1.785h1.884v-3.373l-3.373-0.149c-3.224-0.199-5.010 2.331-5.010 5.357v3.026h-3.67v4.067h3.67z"></path>
</symbol>
</defs>
</svg>
