<!--Iconos-->
<!--Facebook-->
<svg xmlns="http://www.w3.org/2000/svg" 
viewBox="0 0 449.69 449.69">
<defs><style>.cls-1{fill:#231f20;}.cls-2{fill:#fff;fill-rule:evenodd;}</style></defs>
<g id="Capa_2" data-name="Capa 2"><g id="Layer_1" data-name="Layer 1">
<circle class="cls-1" cx="224.85" cy="224.85" r="224.85" transform="translate(-93.13 224.85) rotate(-45)"/>
<path class="cls-2" d="M182.69,394.51H244V253h45.31l9.06-57.16H244V152.63c0-16,15.34-25.09,30-25.09h26.48V80.14l-47.4-2.09c-45.3-2.79-70.4,32.76-70.4,75.28v42.52H131.11V253h51.58Z"/></g></g></svg>

<!--Instagram-->
<svg xmlns="http://www.w3.org/2000/svg" 
viewBox="0 0 449.69 449.69">
<defs><style>.cls-1{fill:#231f20;}.cls-2{fill:#fff;fill-rule:evenodd;}</style></defs>
<g id="Capa_2" data-name="Capa 2"><g id="Layer_1" data-name="Layer 1">
<circle class="cls-1" cx="224.85" cy="224.85" r="224.85" transform="translate(-93.13 224.85) rotate(-45)"/>
<path class="cls-2" d="M158.71,81.62H291c42.49,0,77.44,34.95,77.44,77.44V290.64c0,42.49-34.95,77.44-77.44,77.44H158.71c-42.48,0-77.44-34.95-77.44-77.44V159.06c0-42.49,35-77.44,77.44-77.44Zm143.23,50h0a16.67,16.67,0,0,1,16.45,16.44h0a16.68,16.68,0,0,1-16.45,16.45h0a16.23,16.23,0,0,1-16.44-16.45h0a16.22,16.22,0,0,1,16.44-16.44ZM224.5,146.72h.69c42.49,0,78.13,35.64,78.13,78.13h0c0,43.17-35.64,78.12-78.13,78.12h-.69c-42.48,0-77.44-35-77.44-78.12h0c0-42.49,35-78.13,77.44-78.13Zm0,26.73h.69c28.1,0,51.4,23.3,51.4,51.4h0c0,28.78-23.3,52.08-51.4,52.08h-.69c-28.09,0-51.39-23.3-51.39-52.08h0c0-28.1,23.3-51.4,51.39-51.4Zm-65.1-67.16H290.29a53.52,53.52,0,0,1,53.46,53.45V290a53.53,53.53,0,0,1-53.46,53.46H159.4A53.52,53.52,0,0,1,106,290V159.74a53.51,53.51,0,0,1,53.45-53.45Z"/></g></g></svg>

<!--Linkedin-->
<svg xmlns="http://www.w3.org/2000/svg"
viewBox="0 0 449.69 449.69">
<defs><style>.cls-1{fill:#231f20;}.cls-2{fill:#fff;fill-rule:evenodd;}</style></defs>
<g id="Capa_2" data-name="Capa 2"><g id="Layer_1" data-name="Layer 1">
<circle class="cls-1" cx="224.85" cy="224.85" r="224.85" transform="translate(-93.13 224.85) rotate(-45)"/>
<path class="cls-2" d="M99.79,179.71h50.64v170H99.79Zm25-86.26a30.63,30.63,0,1,1,0,61.26c-16.88,0-30-13.75-30-30.63s13.13-30.63,30-30.63Zm55.64,86.26h50v23.76a57.85,57.85,0,0,1,48.13-25.63h13.76a57.76,57.76,0,0,1,57.51,57.51v114.4h-50V334.12h0V257.86h0c-.63-19.38-13.76-34.39-33.13-34.39h0c-19.38,0-35.64,15-36.26,34.39h0v91.89h-50Z"/></g></g></svg>

<!--Twitter-->
<svg xmlns="http://www.w3.org/2000/svg"
viewBox="0 0 449.7 449.69">
<defs><style>.cls-1{fill:#231f20;}.cls-2{fill:#fff;fill-rule:evenodd;}</style></defs>
<g id="Capa_2" data-name="Capa 2"><g id="Layer_1" data-name="Layer 1">
<circle class="cls-1" cx="224.85" cy="224.85" r="224.85" transform="translate(-93.13 224.85) rotate(-45)"/>
<path class="cls-2" d="M227.33,184.88c-11.07-58.34,59.09-93.06,100.45-51,0,0,18.46-5.17,34.71-15.51a63.91,63.91,0,0,1-25.85,32.5s22.16-2.95,31.76-8.86c0,0-9.6,19.94-27.33,27.32C350.67,303.05,206.65,384.3,90,317.82c0,0,57.61,3,82-25.11,0,0-35.45,3-53.18-39.88,0,0,13.3,5.17,26.59-1.48,0,0-41.36-6.64-45-56.13,0,0,13.29,10.34,28.07,6.65,0,0-45.79-27.33-20-76.81,0,0,48.75,62,118.91,59.82Z"/></g></g></svg>
