<svg xmlns="http://www.w3.org/2000/svg" viewBox="0 0 449.69 449.69"><g data-name="Capa 2"><g data-name="Layer 1"><circle cx="224.85" cy="224.85" r="224.85" transform="rotate(-45 224.853 224.843)" style="fill:#231f20"/><path d="M158.71 81.62H291c42.49 0 77.44 34.95 77.44 77.44v131.58c0 42.49-34.95 77.44-77.44 77.44H158.71c-42.48 0-77.44-34.95-77.44-77.44V159.06c0-42.49 35-77.44 77.44-77.44Zm143.23 50a16.67 16.67 0 0 1 16.45 16.44 16.68 16.68 0 0 1-16.45 16.45 16.23 16.23 0 0 1-16.44-16.45 16.22 16.22 0 0 1 16.44-16.44Zm-77.44 15.1h.69c42.49 0 78.13 35.64 78.13 78.13 0 43.17-35.64 78.12-78.13 78.12h-.69c-42.48 0-77.44-35-77.44-78.12 0-42.49 35-78.13 77.44-78.13Zm0 26.73h.69c28.1 0 51.4 23.3 51.4 51.4 0 28.78-23.3 52.08-51.4 52.08h-.69c-28.09 0-51.39-23.3-51.39-52.08 0-28.1 23.3-51.4 51.39-51.4Zm-65.1-67.16h130.89a53.52 53.52 0 0 1 53.46 53.45V290a53.53 53.53 0 0 1-53.46 53.46H159.4A53.52 53.52 0 0 1 106 290V159.74a53.51 53.51 0 0 1 53.45-53.45Z" style="fill:#fff;fill-rule:evenodd"/></g></g></svg>