<svg xmlns="http://www.w3.org/2000/svg" viewBox="0 0 449.69 449.69"><g data-name="Capa 2"><g data-name="Layer 1"><circle cx="224.85" cy="224.85" r="224.85" transform="rotate(-45 224.853 224.843)" style="fill:#231f20"/><path d="M99.79 179.71h50.64v170H99.79Zm25-86.26a30.63 30.63 0 1 1 0 61.26c-16.88 0-30-13.75-30-30.63s13.13-30.63 30-30.63Zm55.64 86.26h50v23.76a57.85 57.85 0 0 1 48.13-25.63h13.76a57.76 57.76 0 0 1 57.51 57.51v114.4h-50v-91.89c-.63-19.38-13.76-34.39-33.13-34.39-19.38 0-35.64 15-36.26 34.39v91.89h-50Z" style="fill:#fff;fill-rule:evenodd"/></g></g></svg>